<svg width="131" height="131" viewBox="0 0 131 131" fill="none" xmlns="http://www.w3.org/2000/svg">
    <path d="M78.1784 105.086H68.2514C66.8385 105.086 65.693 106.231 65.693 107.644C65.693 109.058 66.8385 110.203 68.2514 110.203H78.1784C79.7105 110.203 80.9571 111.449 80.9571 112.981C80.9571 114.513 79.7108 115.759 78.1784 115.759H51.4555C47.4385 115.759 43.661 113.988 41.0922 110.9L34.7016 103.219C31.2726 99.0969 26.2821 96.6829 20.9423 96.5301V81.4173H30.362C35.0074 81.4173 39.4058 83.194 42.7476 86.4199L56.5405 99.7335C57.5155 100.675 57.5611 102.251 56.6418 103.247C55.7048 104.261 54.1144 104.328 53.0963 103.395L42.2676 93.4683C41.2265 92.5137 39.608 92.5838 38.6534 93.6254C37.6985 94.667 37.7689 96.2853 38.8105 97.2399L49.6392 107.166C51.0996 108.505 52.9477 109.166 54.7912 109.166C56.8493 109.166 58.9015 108.342 60.4016 106.717C63.192 103.694 63.0541 98.9099 60.0941 96.0525L46.3012 82.7388C42.0005 78.5873 36.3399 76.3009 30.362 76.3009H20.4454C19.4829 74.0228 17.2254 72.4198 14.6008 72.4198H2.55833C1.14548 72.4198 0 73.565 0 74.9781V93.6858C0 95.0986 1.14548 96.2441 2.55833 96.2441C3.97119 96.2441 5.11667 95.0989 5.11667 93.6858V77.5362H14.6011C15.2766 77.5362 15.8259 78.0858 15.8259 78.761V99.2663C15.8259 99.9415 15.2766 100.491 14.6011 100.491H11.944C10.5312 100.491 9.38567 101.636 9.38567 103.049C9.38567 104.462 10.5312 105.608 11.944 105.608H14.6008C17.2608 105.608 19.5417 103.961 20.482 101.634C24.4703 101.657 28.2159 103.423 30.7683 106.491L37.1589 114.173C40.7031 118.433 45.9139 120.876 51.4555 120.876H78.1784C82.5316 120.876 86.0735 117.335 86.0735 112.981C86.0735 108.628 82.5316 105.086 78.1784 105.086Z" fill="#353535"/>
    <path d="M128.441 33.7565C127.029 33.7565 125.883 34.9017 125.883 36.3148V53.4638H116.399C115.723 53.4638 115.174 52.9142 115.174 52.239V31.7337C115.174 31.0585 115.723 30.5089 116.399 30.5089H118.868C120.281 30.5089 121.426 29.3637 121.426 27.9506C121.426 26.5377 120.281 25.3922 118.868 25.3922H116.399C113.739 25.3922 111.458 27.0389 110.517 29.366C106.529 29.3432 102.784 27.577 100.231 24.5087L93.8406 16.8276C90.2967 12.5673 85.0856 10.1238 79.5437 10.1238H52.8213C48.4681 10.1238 44.9263 13.6654 44.9263 18.0186C44.9263 22.3718 48.4681 25.9134 52.8213 25.9134H63.7485C65.1614 25.9134 66.3069 24.7682 66.3069 23.3551C66.3069 21.942 65.1614 20.7967 63.7485 20.7967H52.8213C51.2892 20.7967 50.0427 19.5504 50.0427 18.0184C50.0427 16.4865 51.289 15.24 52.8213 15.24H79.544C83.5612 15.24 87.3387 17.011 89.9075 20.0993L96.2981 27.7804C99.7269 31.9023 104.718 34.3163 110.057 34.4693V49.5821H100.638C95.9924 49.5821 91.5939 47.8055 88.2521 44.5796L74.4593 31.266C73.4842 30.3247 73.4387 28.7488 74.358 27.7528C75.2949 26.7378 76.8853 26.6718 77.9034 27.6049L88.7324 37.5312C89.774 38.4858 91.3918 38.4157 92.3469 37.3741C93.3015 36.3325 93.2311 34.7142 92.1895 33.7596L81.3606 23.8335C78.2698 21.0004 73.4422 21.2023 70.5981 24.2828C67.8077 27.306 67.9456 32.0901 70.9057 34.9473L84.6985 48.2609C88.9992 52.4125 94.6599 54.6988 100.638 54.6988H110.554C111.517 56.977 113.774 58.5799 116.399 58.5799H128.442C129.855 58.5799 131 57.4347 131 56.0216V36.3143C131 34.9017 129.854 33.7565 128.441 33.7565Z" fill="#353535"/>
    <path d="M82.601 97.1351C82.0192 95.8476 80.507 95.2732 79.2206 95.8547C77.9249 96.4189 77.3323 97.9264 77.8965 99.2216C78.3156 100.184 79.2561 100.759 80.2432 100.759C80.5843 100.759 80.9307 100.69 81.2633 100.546C81.2741 100.541 81.3079 100.526 81.3184 100.521C82.6061 99.9398 83.1826 98.4228 82.601 97.1351Z" fill="#353535"/>
    <path d="M88.9603 92.8279C88.1239 91.6919 86.5164 91.4555 85.3791 92.288C84.2392 93.1226 83.9916 94.7235 84.8262 95.8634C85.3274 96.5478 86.1042 96.9106 86.8922 96.9106C87.4167 96.9106 87.9461 96.7499 88.4015 96.4165C88.4056 96.4137 88.4297 96.3958 88.4335 96.393C89.5667 95.5538 89.7965 93.9634 88.9603 92.8279Z" fill="#353535"/>
    <path d="M75.4487 100.007C75.1573 98.6292 73.8045 97.747 72.4255 98.0321C71.0479 98.3056 70.1473 99.6399 70.4113 101.022C70.6457 102.247 71.718 103.1 72.9213 103.1C73.0805 103.1 73.2424 103.085 73.4044 103.054C73.421 103.05 73.463 103.042 73.4799 103.038C74.8615 102.746 75.7412 101.389 75.4487 100.007Z" fill="#353535"/>
    <path d="M94.3047 87.2635C93.2557 86.3173 91.6384 86.4005 90.6917 87.4498C90.6792 87.4638 90.6498 87.4971 90.6375 87.5112C89.7144 88.5809 89.8336 90.1964 90.9033 91.1193C91.3867 91.5363 91.9813 91.7405 92.5731 91.7405C93.2836 91.7405 93.99 91.4463 94.4951 90.8721C95.4372 89.8228 95.3525 88.2084 94.3047 87.2635ZM92.876 89.4206L92.5915 89.1632L92.8996 89.4411L92.876 89.4206Z" fill="#353535"/>
    <path d="M100.816 73.399C99.4644 72.9889 98.0341 73.7603 97.624 75.1125C97.2085 76.4629 97.9663 77.8945 99.3167 78.31C99.5672 78.3873 99.8205 78.4239 100.07 78.4239C101.163 78.4239 102.176 77.7172 102.514 76.6172L102.525 76.5822C102.935 75.23 102.168 73.8089 100.816 73.399Z" fill="#353535"/>
    <path d="M104.093 60.1951C104.087 60.1626 104.081 60.1301 104.074 60.0976C103.786 58.715 102.431 57.8305 101.048 58.1188C99.6711 58.4059 98.7856 59.7527 99.0629 61.1298C99.2976 62.3505 100.367 63.2048 101.572 63.2048C101.722 63.2048 101.874 63.1917 102.026 63.1644C103.417 62.9154 104.342 61.586 104.093 60.1951Z" fill="#353535"/>
    <path d="M101.747 65.746C100.344 65.6222 99.098 66.6623 98.9739 68.0695C98.9716 68.0943 98.968 68.1447 98.9665 68.1695C98.8836 69.5801 99.9595 70.7908 101.37 70.8737C101.421 70.8768 101.472 70.8783 101.522 70.8783C102.854 70.8783 103.974 69.8482 104.072 68.5068C104.189 67.1046 103.15 65.8699 101.747 65.746Z" fill="#353535"/>
    <path d="M98.312 80.6787C97.0839 79.9825 95.5216 80.4139 94.8251 81.6433L94.7896 81.7072C94.1159 82.9492 94.5706 84.5132 95.8122 85.1869C96.2029 85.3988 96.6233 85.4993 97.0376 85.4993C97.9405 85.4993 98.8127 85.0204 99.2745 84.1689L97.0506 82.9044L99.2763 84.1658C99.973 82.9364 99.5414 81.3754 98.312 80.6787Z" fill="#353535"/>
    <path d="M51.9125 31.9568C51.2808 30.6928 49.7433 30.1803 48.4804 30.8126L48.4576 30.8238C47.1937 31.4558 46.693 32.9866 47.3249 34.2503C47.7724 35.1455 48.6792 35.6608 49.6192 35.6608C50.0066 35.6608 50.3996 35.5733 50.7683 35.3891C52.0322 34.7574 52.5442 33.2207 51.9125 31.9568Z" fill="#353535"/>
    <path d="M59.3137 29.8237C58.9808 28.451 57.5997 27.6072 56.2245 27.9403C56.2127 27.9431 56.1764 27.9523 56.1646 27.9554C54.7963 28.308 53.9675 29.7042 54.3199 31.0723C54.6174 32.2267 55.6529 32.994 56.7912 32.994C57.002 32.994 57.2164 32.9677 57.4303 32.9127C58.8033 32.5798 59.6466 31.1969 59.3137 29.8237Z" fill="#353535"/>
    <path d="M45.1478 35.646C44.2631 34.5466 42.6522 34.3739 41.5515 35.2566L43.1376 37.2638L41.5438 35.2625C40.4385 36.1427 40.2561 37.752 41.136 38.8573C41.6415 39.4918 42.3869 39.8222 43.1393 39.8222C43.6976 39.8222 44.2603 39.64 44.7313 39.2652L44.7651 39.238C45.8627 38.3515 46.0326 36.7455 45.1478 35.646Z" fill="#353535"/>
    <path d="M31.5072 53.8483C30.144 53.4768 28.7378 54.2799 28.3661 55.6431C28.3597 55.6664 28.3474 55.7148 28.3415 55.7383C28.0089 57.111 28.8522 58.4913 30.2246 58.8247C30.4273 58.8739 30.6299 58.8974 30.8295 58.8974C31.9773 58.8974 33.0201 58.1186 33.3108 56.9577C33.6616 55.6048 32.86 54.2172 31.5072 53.8483Z" fill="#353535"/>
    <path d="M29.8774 61.3652C28.4633 61.2866 27.2572 62.361 27.1753 63.7713C27.1732 63.8043 27.172 63.837 27.1709 63.8698C27.1295 65.2814 28.2402 66.4576 29.652 66.4998C29.6781 66.5005 29.7037 66.5011 29.7295 66.5011C31.1009 66.5011 32.2341 65.4129 32.2848 64.0353C32.3488 62.6386 31.2772 61.4466 29.8774 61.3652Z" fill="#353535"/>
    <path d="M34.727 46.857C33.4756 46.2005 31.9294 46.6828 31.2731 47.9339L31.2314 48.0163C30.6079 49.2836 31.1309 50.8141 32.3979 51.4382C32.7607 51.617 33.1452 51.7015 33.5247 51.7015C34.4642 51.7015 35.3686 51.1815 35.8169 50.286C36.454 49.0392 35.9699 47.5092 34.727 46.857Z" fill="#353535"/>
    <path d="M39.3473 40.7018C38.2601 39.7994 36.6472 39.9491 35.7448 41.0359C35.7325 41.051 35.7043 41.0858 35.6921 41.1009C34.815 42.208 35.0025 43.8143 36.1091 44.6919C36.5789 45.0647 37.1392 45.2453 37.6959 45.2453C38.4464 45.2453 39.1904 44.9168 39.6957 44.2869C40.582 43.2003 40.4285 41.5996 39.3473 40.7018Z" fill="#353535"/>
    <path d="M32.7686 71.136C32.5197 69.7451 31.1895 68.8197 29.7994 69.0689C28.4085 69.3181 27.4831 70.6473 27.732 72.0381L27.7366 72.0632C27.9582 73.2997 29.0321 74.1587 30.2451 74.1587C30.3963 74.1587 30.5496 74.1454 30.7036 74.1177C32.0944 73.8688 33.0178 72.5268 32.7686 71.136Z" fill="#353535"/>
    <path d="M74.284 51.7155C70.954 51.7155 67.8686 53.0886 65.67 55.406C63.4712 53.0886 60.386 51.7155 57.056 51.7155C50.5053 51.7155 45.176 57.0447 45.176 63.5955C45.176 67.1302 46.7349 70.4569 49.4527 72.7227C49.469 72.7366 49.4859 72.7501 49.5028 72.7637L64.0819 84.306C64.5471 84.6744 65.1084 84.8584 65.6698 84.8584C66.2337 84.8584 66.7976 84.6726 67.2638 84.3011L82.4605 72.1964C82.535 72.1373 82.6058 72.0739 82.6731 72.0069C84.9244 69.7617 86.1641 66.7745 86.1641 63.5955C86.1641 57.0447 80.8348 51.7155 74.284 51.7155ZM79.1525 68.2908L65.6654 79.0338L52.7062 68.7741C51.172 67.4835 50.2926 65.5981 50.2926 63.596C50.2924 59.8664 53.3266 56.8321 57.056 56.8321C59.8016 56.8321 62.2551 58.4719 63.3067 61.0095C63.703 61.9652 64.6356 62.5884 65.67 62.5884C66.7045 62.5884 67.6371 61.9654 68.0334 61.0095C69.085 58.4719 71.5384 56.8321 74.284 56.8321C78.0134 56.8321 81.0476 59.8663 81.0476 63.5957C81.0476 65.3617 80.3755 67.0237 79.1525 68.2908Z" fill="#353535"/>
    <path d="M2.55833 105.599C3.96631 105.599 5.10771 104.458 5.10771 103.05C5.10771 101.642 3.96631 100.5 2.55833 100.5C1.15035 100.5 0.00895214 101.642 0.00895214 103.05C0.00895214 104.458 1.15035 105.599 2.55833 105.599Z" fill="#353535"/>
    <path d="M128.441 30.4994C129.849 30.4994 130.991 29.358 130.991 27.95C130.991 26.542 129.849 25.4006 128.441 25.4006C127.033 25.4006 125.892 26.542 125.892 27.95C125.892 29.358 127.033 30.4994 128.441 30.4994Z" fill="#353535"/>
</svg>
