<svg width="129" height="128" viewBox="0 0 129 128" fill="none" xmlns="http://www.w3.org/2000/svg">
    <path d="M85.675 110.269C85.2 109.793 84.575 109.543 83.9 109.543H76.7C76.675 109.543 76.675 109.543 76.65 109.543C73.125 109.543 69.6 108.967 66.25 107.865C65.425 107.589 64.525 107.714 63.8 108.19C62.125 109.317 62.475 111.872 64.375 112.523C68.325 113.85 72.475 114.551 76.65 114.551C76.675 114.551 76.675 114.551 76.7 114.551H82.875L95.575 127.274C96.075 127.775 96.7 128 97.35 128C98 128 98.625 127.75 99.125 127.274C100.1 126.297 100.1 124.719 99.125 123.743L85.675 110.269Z" fill="#353535"/>
    <path d="M125.5 94.7665C124.85 94.7665 124.2 95.042 123.725 95.4928C123.25 95.9687 123 96.5948 123 97.2709C123 97.9221 123.275 98.5732 123.725 99.0491C124.2 99.5249 124.825 99.7754 125.5 99.7754C126.175 99.7754 126.8 99.4999 127.275 99.0491C127.75 98.5732 128 97.9471 128 97.2709C128 96.6198 127.725 95.9687 127.275 95.4928C126.8 95.042 126.15 94.7665 125.5 94.7665Z" fill="#353535"/>
    <path d="M114.575 82.7955L114.6 72.6777C114.6 65.0393 112.375 57.6263 108.125 51.2651L97.125 34.8362C95.625 32.5822 93.325 31.0796 90.675 30.5787C88.025 30.0778 85.35 30.6539 83.125 32.2066C79.5 34.736 78.075 39.3191 79.35 43.4013L72.825 36.8648C71.85 35.888 70.275 35.888 69.3 36.8648C68.325 37.8415 68.325 39.4193 69.3 40.396L83.325 54.4457C84.625 55.748 86.625 55.8732 88.05 54.7212C89.5 53.5942 89.85 51.6157 88.9 50.0379L84.6 42.9254C83.25 40.6965 83.875 37.7663 86 36.2888C87.1 35.5124 88.425 35.2369 89.75 35.4623C91.075 35.7127 92.2 36.4641 92.95 37.591L103.95 54.0199C107.65 59.5546 109.6 65.991 109.6 72.6276L109.575 83.7973C109.575 84.4734 109.825 85.0996 110.3 85.5754L117 92.2872C117.5 92.7881 118.125 93.0135 118.775 93.0135C119.425 93.0135 120.05 92.763 120.55 92.2872C121.525 91.3105 121.525 89.7327 120.55 88.756L114.575 82.7955Z" fill="#353535"/>
    <path d="M65.15 35.2369C65.8 35.2369 66.45 34.9614 66.925 34.5106C67.4 34.0348 67.65 33.4087 67.65 32.7325C67.65 32.0563 67.375 31.4302 66.925 30.9544C66.475 30.4785 65.825 30.2281 65.15 30.2281C64.5 30.2281 63.85 30.5036 63.375 30.9544C62.9 31.4302 62.65 32.0563 62.65 32.7325C62.65 33.3836 62.925 34.0348 63.375 34.5106C63.85 34.9614 64.5 35.2369 65.15 35.2369Z" fill="#353535"/>
    <path d="M90.125 69.8228C91.1 68.846 91.1 67.2683 90.125 66.2916C89.15 65.3148 87.575 65.3148 86.6 66.2916L85.5 67.3684C80.825 72.0517 80.825 79.6651 85.5 84.3232C86 84.8241 86.625 85.0495 87.275 85.0495C87.925 85.0495 88.55 84.7991 89.05 84.3232C90.025 83.3465 90.025 81.7687 89.05 80.792C86.325 78.0622 86.325 73.6294 89.05 70.8997L90.125 69.8228Z" fill="#353535"/>
    <path d="M119.325 13.5238C117.725 13.5238 116.175 13.9746 114.85 14.801C113.5 13.9746 111.95 13.5238 110.375 13.5238C105.6 13.5238 101.7 17.5058 101.7 22.3643C101.7 25.1192 103.675 28.45 107.775 32.5072C110.525 35.237 113.225 37.3407 113.35 37.4158C113.8 37.7664 114.325 37.9417 114.875 37.9417C115.425 37.9417 115.95 37.7664 116.4 37.4158C116.525 37.3407 119.225 35.237 121.975 32.5072C126.05 28.45 128.05 25.1192 128.05 22.3643C128 17.4808 124.1 13.5238 119.325 13.5238ZM114.85 32.2317C110.675 28.7506 106.7 24.3178 106.7 22.3643C106.7 20.2356 108.35 18.5326 110.375 18.5326C111.375 18.5326 112.325 18.9584 113.025 19.7097C113.5 20.2356 114.175 20.5111 114.85 20.5111C115.525 20.5111 116.225 20.2106 116.7 19.7097C117.4 18.9584 118.35 18.5326 119.35 18.5326C121.375 18.5326 123.025 20.2606 123.025 22.3643C123 24.3178 119.025 28.7506 114.85 32.2317Z" fill="#353535"/>
    <path d="M13.15 24.4179C13.675 24.4179 14.225 24.2426 14.675 23.892C14.8 23.8169 17.5 21.7382 20.25 19.0084C24.325 14.9513 26.325 11.6204 26.325 8.86558C26.325 3.982 22.425 0 17.65 0C16.05 0 14.5 0.450792 13.15 1.27725C11.825 0.450792 10.275 0 8.675 0C3.9 0 0 3.982 0 8.84054C0 11.5954 1.975 14.9262 6.075 18.9834C8.825 21.7132 11.525 23.8169 11.65 23.892C12.1 24.2677 12.625 24.4179 13.15 24.4179ZM5 8.84054C5 6.73684 6.65 5.0088 8.675 5.0088C9.675 5.0088 10.625 5.43455 11.325 6.18587C11.8 6.7118 12.475 6.98728 13.175 6.98728C13.875 6.98728 14.55 6.68675 15 6.18587C15.7 5.43455 16.65 5.0088 17.65 5.0088C19.675 5.0088 21.325 6.73684 21.325 8.84054C21.325 10.794 17.35 15.2268 13.175 18.7079C8.975 15.2518 5 10.819 5 8.84054Z" fill="#353535"/>
    <path d="M66.325 92.3123L61.2 92.3373C61.675 90.1836 61.625 88.1299 61 86.3769L62.525 77.7617L54.025 81.2178C53.65 81.1927 53.3 81.2178 52.925 81.2428C52.9 80.6167 52.825 80.0157 52.7 79.4146L54.425 69.6975L45.75 73.2288C43.7 73.0785 41.45 73.6545 39.325 74.8817L40.275 69.5974L30.95 73.4041L30.975 73.4541C30.625 73.5293 30.25 73.6295 29.875 73.7547C29.225 73.955 28.575 74.2305 27.95 74.5561L20.95 67.5187L19.925 66.4919C18.05 64.6136 18.05 61.5582 19.925 59.6799C21.675 57.9269 24.45 57.8016 26.35 59.3544L27.725 60.7318L27.75 60.7067L32.65 65.6154C33.15 66.1163 33.775 66.3416 34.425 66.3416C35.075 66.3416 35.7 66.0912 36.2 65.6154C37.175 64.6387 37.175 63.0609 36.2 62.0842L25.425 51.2902V51.3403L24.85 50.7643C22.975 48.886 22.975 45.8306 24.85 43.9523C26.6 42.1992 29.375 42.074 31.275 43.6267L42.525 54.8965C43.025 55.3974 43.65 55.6228 44.3 55.6228C44.95 55.6228 45.575 55.3724 46.075 54.8965C47.05 53.9198 47.05 52.342 46.075 51.3653L30.25 35.5625C28.375 33.6842 28.375 30.6289 30.25 28.7506C32.125 26.8723 35.175 26.8723 37.05 28.7506L55.9 47.6838C56.4 48.1847 57.025 48.4101 57.675 48.4101C58.325 48.4101 58.95 48.1597 59.45 47.6838C60.425 46.7071 60.425 45.1294 59.45 44.1526L45.125 29.7523C43.6 27.874 43.7 25.0691 45.45 23.316C47.325 21.4377 50.375 21.4377 52.25 23.316L57.5 28.5753C58.475 29.552 60.05 29.552 61.025 28.5753C62 27.5985 62 26.0208 61.025 25.0441L55.775 19.7848C51.95 15.9531 45.725 15.9531 41.925 19.7848C40.65 21.0621 39.825 22.5897 39.4 24.1926C37.75 22.9904 35.775 22.3393 33.675 22.3393C31.05 22.3393 28.6 23.3661 26.75 25.2194C23.3 28.6754 22.975 34.0599 25.725 37.8916C24.1 38.3174 22.575 39.1689 21.325 40.4211C17.725 44.0274 17.525 49.7876 20.725 53.6443C19.15 54.0701 17.65 54.9216 16.425 56.1487C12.6 59.9805 12.6 66.2164 16.425 70.0231L16.5 70.0983L23.925 77.5363C23.425 78.0372 22.95 78.5631 22.5 79.1391C19.625 82.7705 18.375 87.0781 19.1 90.6343C19 90.7596 18.9 90.8597 18.825 90.985C14.75 96.0188 13.025 100.552 13.25 105.561C12.225 107.289 9.70001 111.596 8.925 113.55C8.225 115.378 7.275 118.784 6.15 123.743C5.85 125.095 6.675 126.422 8.025 126.748C8.225 126.798 8.4 126.823 8.575 126.823C9.725 126.823 10.75 126.047 11 124.87C12.35 119.009 13.125 116.48 13.55 115.378C14.175 113.75 16.9 109.142 17.875 107.514C18.15 107.063 18.275 106.537 18.225 106.011C17.875 101.979 19.175 98.423 22.575 94.1405C22.9 93.7398 23.225 93.3391 23.575 92.9885C24.225 92.2873 24.4 91.2855 24.075 90.409L24 90.1836C23.4 88.4305 23.9 85.325 26.275 82.2947C27.7 80.4915 29.55 79.1391 31.325 78.5631C32.15 78.2877 33.65 77.9871 34.725 78.7635C34.6 78.9137 34.475 79.039 34.375 79.1892C32.1 82.0443 30.8 85.4753 30.775 88.5557C30.775 89.9331 31.875 91.0601 33.25 91.0851C33.25 91.0851 33.25 91.0851 33.275 91.0851C34.65 91.0851 35.775 89.9832 35.775 88.6058C35.8 86.6023 36.7 84.2982 38.3 82.3197C41.25 78.6132 45.175 77.5113 46.85 78.8386C47.775 79.5649 48.1 81.1427 47.775 82.9458C46.05 83.9476 44.375 85.3751 42.95 87.1783C41.1 89.5074 39.925 92.1119 39.5 94.7165C39.275 96.0939 40.2 97.3712 41.575 97.5715C42.95 97.7969 44.225 96.8703 44.425 95.4929C44.7 93.7648 45.55 91.9116 46.85 90.2837C48.1 88.731 49.5 87.6291 50.85 86.9779C50.925 86.9529 51.025 86.9028 51.1 86.8527C52.85 86.0763 54.45 86.0763 55.375 86.8026C56.6 87.7793 56.75 90.0082 55.9 92.4125C52 91.8365 47.35 93.9652 43.95 98.2477C43.3 99.0742 42.725 99.9507 42.225 100.827C41.575 102.029 42 103.557 43.225 104.233C44.425 104.884 45.95 104.459 46.625 103.231C46.975 102.58 47.4 101.954 47.875 101.353C50.825 97.6467 54.75 96.5447 56.425 97.8721C58.1 99.1994 57.925 103.282 54.975 106.988C52.025 110.72 47.65 112.147 46 110.845C44.925 109.993 43.375 110.169 42.525 111.221C40.45 113.75 38.25 115.403 35.425 116.605C35.1 116.755 34.8 116.956 34.55 117.231L33.875 117.957C33.75 118.083 33.65 118.233 33.55 118.408L30.25 124.143C29.55 125.345 29.975 126.873 31.15 127.574C31.55 127.8 31.975 127.9 32.4 127.9C33.275 127.9 34.1 127.449 34.575 126.648L37.75 121.163L37.875 121.038C40.65 119.811 42.925 118.183 45.05 115.979C46.875 116.58 49.05 116.505 51.3 115.728C54.15 114.752 56.85 112.773 58.9 110.169C61.825 106.462 63 102.205 62.325 98.7486L66.325 92.3123Z" fill="#353535"/>
</svg>
