<svg width="139" height="139" viewBox="0 0 139 139" fill="none" xmlns="http://www.w3.org/2000/svg">
    <g clip-path="url(#clip0)">
        <path d="M105.177 15.4058L70.4267 0.194566C69.8358 -0.0633092 69.1642 -0.0633092 68.5733 0.194566L33.8233 15.4058C32.9795 15.7741 32.4338 16.6071 32.4333 17.5279V53.8995C32.4459 62.0735 36.3738 69.7466 42.9973 74.5364L67.0142 91.8581C68.4975 92.9318 70.5025 92.9318 71.9858 91.8581L96.0027 74.5387C102.626 69.7489 106.554 62.0758 106.567 53.9019V17.5279C106.566 16.6071 106.021 15.7741 105.177 15.4058ZM101.933 53.9019C101.923 60.5875 98.7098 66.8635 93.2922 70.7811L69.5 87.9406L45.7078 70.7811C40.2902 66.8635 37.0773 60.5875 37.0667 53.9019V19.043L69.5 4.84643L101.933 19.043V53.9019Z" fill="#353535"/>
        <path d="M68.5733 10.3091L43.09 21.4662C42.2461 21.8345 41.7005 22.6675 41.7 23.5883V53.9019C41.7071 59.0996 44.2054 63.979 48.4183 67.0235L68.1448 81.2524C68.954 81.8361 70.046 81.8361 70.8552 81.2524L90.5817 67.0235C94.7946 63.979 97.2929 59.0996 97.3 53.9019V23.5883C97.2995 22.6675 96.7539 21.8345 95.91 21.4662L70.4267 10.3091C69.8358 10.0513 69.1642 10.0513 68.5733 10.3091ZM92.6667 25.101V53.9019C92.6596 57.6109 90.8767 61.0923 87.8712 63.2658L69.5 76.5172L51.1288 63.2658C48.1233 61.0923 46.3404 57.6109 46.3333 53.9019V25.101L69.5 14.961L92.6667 25.101Z" fill="#353535"/>
        <path d="M19.1936 76.9133L14.1826 65.2049C13.117 62.791 10.8445 61.129 8.22125 60.8449C5.59796 60.5608 3.02237 61.6978 1.46469 63.8276C-0.0929833 65.9574 -0.396103 68.7564 0.669516 71.1703L9.74853 91.1423C10.9734 93.846 12.6773 96.3058 14.778 98.4028L29.0556 112.683C28.2515 113.535 27.8025 114.662 27.8 115.833V134.367C27.8 136.926 29.8744 139 32.4333 139H57.9167C60.4756 139 62.55 136.926 62.55 134.367V115.833C62.55 113.274 60.4756 111.2 57.9167 111.2V106.889C57.9876 101.402 56.1976 96.0533 52.8385 91.7145C50.8691 89.1243 48.1851 87.1667 45.1171 86.0827C40.2378 84.0327 35.7505 81.153 31.8542 77.5713C28.2375 74.5926 23.0995 74.3256 19.1936 76.9133ZM57.9167 134.367H32.4333V115.833H57.9167V134.367ZM49.2222 94.608C51.9226 98.1262 53.3538 102.454 53.2833 106.889V111.2H34.1268L18.0538 95.127C16.3467 93.4223 14.9615 91.4234 13.9649 89.2264L4.88585 69.2544C4.49839 68.402 4.5705 67.4111 5.07729 66.6238C5.58408 65.8364 6.45613 65.3605 7.39248 65.3601C8.4944 65.3592 9.49025 66.0168 9.92228 67.0304L15.1047 79.1165C16.4808 82.3411 18.4644 85.2708 20.9473 87.7461L31.5298 98.3309C32.1115 98.9332 32.9728 99.1747 33.7828 98.9627C34.5928 98.7507 35.2253 98.1181 35.4373 97.3081C35.6494 96.4982 35.4078 95.6368 34.8056 95.0552L24.2231 84.4703C23.1589 83.4088 22.2021 82.2448 21.3666 80.9953C23.5914 79.2833 26.7038 79.3352 28.8703 81.1204C33.2009 85.0948 38.2062 88.2643 43.6506 90.4797C45.8689 91.2864 47.8047 92.7207 49.2222 94.608Z" fill="#353535"/>
        <path d="M50.9667 122.783H48.65C47.3705 122.783 46.3333 123.821 46.3333 125.1C46.3333 126.379 47.3705 127.417 48.65 127.417H50.9667C52.2461 127.417 53.2833 126.379 53.2833 125.1C53.2833 123.821 52.2461 122.783 50.9667 122.783Z" fill="#353535"/>
        <path d="M129.251 91.1423L138.33 71.1703C139.447 68.7483 139.171 65.9125 137.608 63.7514C136.045 61.5902 133.439 60.4394 130.789 60.7406C128.139 61.0418 125.857 62.7482 124.82 65.2049L119.82 76.8693C115.901 74.2943 110.76 74.5762 107.146 77.5643C103.25 81.146 98.7622 84.0257 93.8829 86.0757C90.8149 87.1597 88.1309 89.1173 86.1615 91.7076C82.8009 96.0482 81.0108 101.4 81.0834 106.889V111.2C78.5244 111.2 76.45 113.274 76.45 115.833V134.367C76.45 136.926 78.5244 139 81.0834 139H106.567C109.126 139 111.2 136.926 111.2 134.367V115.833C111.197 114.662 110.748 113.535 109.944 112.683L124.222 98.4027C126.323 96.3058 128.027 93.846 129.251 91.1423ZM106.567 134.367H81.0834V115.833H106.567V134.367ZM104.873 111.2H85.7167V106.889C85.6468 102.455 87.078 98.1279 89.7778 94.6104C91.1922 92.7243 93.1237 91.2893 95.3378 90.4797C100.783 88.2649 105.789 85.0954 110.12 81.1204C112.285 79.3216 115.406 79.261 117.638 80.9744C116.8 82.2331 115.838 83.405 114.768 84.4726L104.185 95.0575C103.307 95.9665 103.32 97.4114 104.213 98.305C105.107 99.1986 106.552 99.2112 107.461 98.3332L118.043 87.7484C120.526 85.2731 122.51 82.3434 123.886 79.1188L129.068 67.0304C129.502 66.0181 130.497 65.3618 131.598 65.3624C132.535 65.3628 133.407 65.8387 133.913 66.6261C134.42 67.4134 134.492 68.4043 134.105 69.2567L125.026 89.2287C124.029 91.4257 122.644 93.4246 120.937 95.1293L104.873 111.2Z" fill="#353535"/>
        <path d="M90.35 122.783H88.0333C86.7539 122.783 85.7167 123.821 85.7167 125.1C85.7167 126.379 86.7539 127.417 88.0333 127.417H90.35C91.6295 127.417 92.6667 126.379 92.6667 125.1C92.6667 123.821 91.6295 122.783 90.35 122.783Z" fill="#353535"/>
        <path d="M56.99 49.1133C55.9664 48.3456 54.5143 48.5531 53.7467 49.5767C52.979 50.6002 53.1864 52.0523 54.21 52.82L63.4767 59.77C63.8777 60.0707 64.3654 60.2333 64.8667 60.2333C64.9978 60.2329 65.1287 60.222 65.2582 60.2009C65.8856 60.0932 66.4411 59.7321 66.7941 59.2024L85.3275 31.4024C85.7868 30.7138 85.8439 29.8324 85.4772 29.0903C85.1105 28.3482 84.3758 27.858 83.5498 27.8045C82.7237 27.751 81.9319 28.1423 81.4725 28.8309L64.2968 54.5946L56.99 49.1133Z" fill="#353535"/>
    </g>
    <defs>
        <clipPath id="clip0">
            <rect width="139" height="139" fill="white"/>
        </clipPath>
    </defs>
</svg>
