<svg width="129" height="129" viewBox="0 0 129 129" fill="none" xmlns="http://www.w3.org/2000/svg">
    <path d="M4.3 129.025H15.05C17.4248 129.025 19.35 127.099 19.35 124.725C19.3442 120.999 16.9399 117.7 13.3945 116.555L14.5985 111.825C17.6927 111.483 20.7328 110.761 23.65 109.675V124.725C23.65 127.099 25.5752 129.025 27.95 129.025H38.7C41.0748 129.025 43 127.099 43 124.725C42.9665 121.023 40.5674 117.757 37.0445 116.619L38.1625 111.825C46.6712 112.028 54.02 105.91 55.3625 97.5057C59.9115 98.6968 64.634 99.0825 69.316 98.6451L74.218 125.413C74.5963 127.481 76.4153 128.973 78.518 128.939H98.9C101.275 128.939 103.2 127.013 103.2 124.639C103.207 120.711 100.553 117.278 96.75 116.297V91.7222C101.996 86.6052 105.35 75.2747 105.35 62.3746C105.365 58.0459 104.962 53.7258 104.146 49.4746H113.95C121.492 49.0848 127.75 43.5064 129 36.0586C129.318 33.9534 128.047 31.9327 126.012 31.3071L113.757 27.7166C112.724 22.289 108.349 18.1218 102.878 17.3536C101.975 13.2901 99.1795 3.52915 92.8585 0.368645C91.9057 -0.130793 90.7667 -0.122289 89.8215 0.391318C88.8763 0.904925 88.2494 1.856 88.15 2.92714L86.1935 21.5246C85.957 23.9326 85.3335 23.9111 77.4215 43.9706C75.187 49.8213 69.6015 53.7098 63.339 53.7746H26.2085C23.5942 53.7826 21.2336 52.2118 20.2315 49.7971C17.7369 43.6655 15.9271 37.2771 14.835 30.7481C14.6612 29.4072 13.6642 28.3198 12.3433 28.0306C11.0225 27.7414 9.6623 28.3126 8.944 29.4581C3.397 38.1871 1.6985 57.4081 9.9545 68.3732C5.90835 75.5437 5.33116 84.162 8.385 91.8081L1.935 98.2581C0.698676 99.47 0.00140197 101.128 0 102.859V124.725C0 127.099 1.92518 129.025 4.3 129.025ZM78.432 124.725L73.573 98.1077C75.1435 97.7735 76.6882 97.328 78.1955 96.7747C84.409 129.971 78.905 100.645 83.42 124.725H78.432ZM70.95 56.4406V81.7246C70.95 82.9121 69.9874 83.8746 68.8 83.8746H34.4C33.2126 83.8746 32.25 82.9121 32.25 81.7246V58.0746H63.339C65.9614 58.0597 68.5525 57.5034 70.95 56.4406ZM4.3 102.859C4.2967 102.288 4.52105 101.738 4.9235 101.333L11.3735 94.8826C12.5476 93.6754 12.909 91.8939 12.298 90.3247C9.83473 83.9445 10.3066 76.8032 13.588 70.8026C14.5064 69.3657 14.4466 67.5119 13.4375 66.1371C10.0886 61.2413 8.39356 55.4027 8.6 49.4746C8.41649 44.3379 9.27965 39.2174 11.137 34.4246C12.3103 40.2287 14.0308 45.9086 16.2755 51.3881C17.9239 55.4253 21.8478 58.0668 26.2085 58.0746H27.95V81.7246C27.95 85.2869 30.8378 88.1747 34.4 88.1747H68.8C72.3623 88.1747 75.25 85.2869 75.25 81.7246V53.9036C78.0343 51.7518 80.1698 48.8723 81.4205 45.5831L89.4185 26.2331C90.515 23.5456 90.3215 23.5026 92.2565 5.09864C96.191 8.43114 98.384 16.5581 98.9215 19.7186C99.0906 20.762 99.993 21.5277 101.05 21.5246C105.582 21.5143 109.344 25.0226 109.65 29.5441C109.714 30.4435 110.332 31.2075 111.198 31.4576L124.7 35.4566C123.747 40.7655 119.328 44.7603 113.95 45.1746H96.75C95.5626 45.1746 94.6 46.1372 94.6 47.3246C94.6 48.5121 95.5626 49.4746 96.75 49.4746H99.7385C102.491 62.3746 100.642 76.5217 96.75 84.3046V83.8746C96.75 82.6872 95.7874 81.7246 94.6 81.7246C93.4126 81.7246 92.45 82.6872 92.45 83.8746V118.275C92.45 119.462 93.4126 120.425 94.6 120.425C96.9748 120.425 98.9 122.35 98.9 124.725H87.7845C82.216 95.0331 88.3865 127.864 82.4095 96.0651C82.1794 94.8308 81.4212 93.7587 80.334 93.1304C79.2469 92.5021 77.9395 92.3804 76.755 92.7971C70.2091 94.9653 63.1763 95.1968 56.502 93.4636C55.3595 93.1688 54.1461 93.3565 53.146 93.9825C52.1459 94.6086 51.447 95.6182 51.213 96.7747C49.063 106.278 42.14 107.718 38.1625 107.718C36.2087 107.737 34.5131 109.07 34.0345 110.965L32.8735 115.609C32.3321 117.788 33.559 120.017 35.69 120.726C37.4457 121.277 38.6558 122.885 38.7 124.725H27.95V94.6246C27.95 93.4372 26.9874 92.4746 25.8 92.4746C24.6126 92.4746 23.65 93.4372 23.65 94.6246V105.074C20.6438 106.357 17.4624 107.183 14.2115 107.525C12.3875 107.69 10.8687 108.994 10.4275 110.771L9.2235 115.587C8.73241 117.738 9.94938 119.912 12.04 120.618C13.833 121.182 15.052 122.845 15.05 124.725H4.29996L4.3 102.859Z" fill="#353535"/>
    <path d="M45.15 73.1H49.45V77.4C49.45 78.5874 50.4126 79.55 51.6 79.55C52.7874 79.55 53.75 78.5874 53.75 77.4V73.1H58.05C59.2374 73.1 60.2 72.1374 60.2 70.95C60.2 69.7626 59.2374 68.8 58.05 68.8H53.75V64.5C53.75 63.3126 52.7874 62.35 51.6 62.35C50.4126 62.35 49.45 63.3126 49.45 64.5V68.8H45.15C43.9626 68.8 43 69.7626 43 70.95C43 72.1374 43.9626 73.1 45.15 73.1Z" fill="#353535"/>
</svg>
